<svg version="1.1" id="Layer_1" xmlns="http://www.w3.org/2000/svg" xmlns:xlink="http://www.w3.org/1999/xlink" x="0px" y="0px" style="enable-background:new 0 0 864 576;" xml:space="preserve" viewBox="17.5 177.18 830.52 224.67">
<!-- Generator: Adobe Illustrator 23.0.2, SVG Export Plug-In . SVG Version: 6.00 Build 0)  -->
<style type="text/css">
	.st0{fill:#176734;}
</style>
<polygon class="st0" points="192.64,322.71 122.76,359.33 52.89,322.71 17.52,341.52 122.76,396.21 228.01,341.52 "/>
<polygon class="st0" points="192.64,268.1 122.76,304.72 52.89,268.1 17.52,286.91 122.76,341.6 228.01,286.91 "/>
<path class="st0" d="M122.76,177.2c-35.08,18.2-70.16,36.4-105.24,54.6l105.24,54.68l105.24-54.68  C192.92,213.6,157.84,195.4,122.76,177.2z"/>
<g>
	<path class="st0" d="M284.81,373.2c-6.94,0-13.3-0.88-19.07-2.62s-10.78-4.45-15.02-8.09c-4.2-3.65-7.47-8.23-9.82-13.75   c-2.35-5.52-3.52-12.03-3.52-19.52c0-8.04,1.27-14.89,3.82-20.53c2.55-5.64,5.99-10.29,10.34-13.94c4.2-3.5,9.13-6.08,14.8-7.76   c5.67-1.67,11.58-2.51,17.72-2.51c4.65,0,9.29,0.54,13.94,1.61c4.65,1.07,9.32,2.79,14.01,5.13v22.48h-3.37   c-1.05-1-2.34-2.1-3.86-3.3c-1.52-1.2-3.19-2.3-4.98-3.3c-1.9-1.05-4.05-1.94-6.44-2.66c-2.4-0.72-5.07-1.09-8.02-1.09   c-6.69,0-11.88,2.34-15.55,7.01c-3.67,4.67-5.51,10.95-5.51,18.85c0,8.44,1.96,14.74,5.88,18.88c3.92,4.15,9.13,6.22,15.62,6.22   c3.3,0,6.19-0.38,8.69-1.12c2.5-0.75,4.65-1.65,6.44-2.7c1.75-1.05,3.25-2.14,4.5-3.26c1.25-1.12,2.32-2.14,3.22-3.04h3.37v22.48   c-1.5,0.65-3.23,1.4-5.21,2.25c-1.97,0.85-3.98,1.55-6.03,2.1c-2.55,0.7-4.93,1.24-7.16,1.61   C291.39,373.01,288.45,373.2,284.81,373.2z"/>
	<path class="st0" d="M405.23,328.91c0,13.84-3.79,24.74-11.35,32.71c-7.57,7.97-18.27,11.95-32.11,11.95   c-13.74,0-24.42-3.98-32.03-11.95c-7.62-7.97-11.43-18.87-11.43-32.71c0-13.99,3.81-24.94,11.43-32.86   c7.62-7.92,18.3-11.88,32.03-11.88c13.79,0,24.48,3.98,32.07,11.95C401.43,304.09,405.23,315.02,405.23,328.91z M378.32,329.06   c0-5-0.41-9.15-1.24-12.48c-0.82-3.32-1.96-5.98-3.41-7.98c-1.55-2.1-3.3-3.56-5.25-4.38s-4.17-1.24-6.67-1.24   c-2.35,0-4.47,0.36-6.37,1.09c-1.9,0.72-3.65,2.11-5.25,4.16c-1.5,1.95-2.7,4.62-3.6,8.02c-0.9,3.4-1.35,7.67-1.35,12.81   c0,5.15,0.42,9.3,1.27,12.48c0.85,3.17,1.95,5.71,3.3,7.61c1.4,1.95,3.15,3.37,5.25,4.27c2.1,0.9,4.42,1.35,6.97,1.35   c2.1,0,4.23-0.45,6.41-1.35c2.17-0.9,3.91-2.25,5.21-4.05c1.55-2.15,2.72-4.73,3.52-7.76   C377.92,338.59,378.32,334.41,378.32,329.06z"/>
	<path class="st0" d="M444.79,373.27c-6.2,0-12.05-0.67-17.57-2.02c-5.52-1.35-10.08-2.92-13.68-4.72v-22.18h2.17   c1.25,0.95,2.67,2,4.27,3.15c1.6,1.15,3.82,2.35,6.67,3.6c2.45,1.15,5.21,2.13,8.28,2.96c3.07,0.83,6.41,1.24,10,1.24   c3.7,0,6.96-0.57,9.78-1.72c2.82-1.15,4.23-2.97,4.23-5.47c0-1.95-0.65-3.42-1.95-4.42c-1.3-1-3.82-1.95-7.57-2.85   c-2-0.5-4.52-1.04-7.57-1.61c-3.05-0.57-5.75-1.24-8.09-1.99c-6.59-2.05-11.55-5.08-14.87-9.1c-3.32-4.02-4.98-9.3-4.98-15.85   c0-3.75,0.86-7.28,2.58-10.6c1.72-3.32,4.26-6.28,7.61-8.88c3.35-2.55,7.48-4.57,12.4-6.07c4.92-1.5,10.48-2.25,16.67-2.25   c5.89,0,11.32,0.59,16.26,1.76c4.95,1.17,9.12,2.58,12.51,4.23v21.28h-2.1c-0.9-0.7-2.32-1.64-4.27-2.81   c-1.95-1.17-3.85-2.18-5.7-3.03c-2.2-1-4.66-1.82-7.38-2.47c-2.72-0.65-5.51-0.97-8.36-0.97c-3.8,0-7.01,0.65-9.63,1.95   c-2.62,1.3-3.93,3.02-3.93,5.17c0,1.9,0.65,3.4,1.95,4.5c1.3,1.1,4.12,2.17,8.47,3.22c2.25,0.55,4.83,1.09,7.76,1.61   c2.92,0.52,5.73,1.24,8.43,2.14c6.04,1.95,10.63,4.81,13.75,8.58c3.12,3.77,4.68,8.78,4.68,15.02c0,3.95-0.92,7.71-2.77,11.28   c-1.85,3.57-4.47,6.58-7.87,9.03c-3.6,2.65-7.83,4.7-12.7,6.14C457.42,372.55,451.58,373.27,444.79,373.27z"/>
	<path class="st0" d="M539.43,373.2c-6.94,0-13.3-0.88-19.07-2.62c-5.77-1.75-10.78-4.45-15.02-8.09c-4.2-3.65-7.47-8.23-9.82-13.75   c-2.35-5.52-3.52-12.03-3.52-19.52c0-8.04,1.27-14.89,3.82-20.53c2.55-5.64,6-10.29,10.34-13.94c4.2-3.5,9.13-6.08,14.8-7.76   c5.67-1.67,11.58-2.51,17.72-2.51c4.65,0,9.29,0.54,13.94,1.61c4.65,1.07,9.32,2.79,14.01,5.13v22.48h-3.37   c-1.05-1-2.34-2.1-3.86-3.3c-1.52-1.2-3.18-2.3-4.98-3.3c-1.9-1.05-4.05-1.94-6.44-2.66c-2.4-0.72-5.07-1.09-8.02-1.09   c-6.69,0-11.88,2.34-15.55,7.01c-3.67,4.67-5.51,10.95-5.51,18.85c0,8.44,1.96,14.74,5.88,18.88c3.92,4.15,9.13,6.22,15.62,6.22   c3.3,0,6.19-0.38,8.69-1.12c2.5-0.75,4.65-1.65,6.44-2.7c1.75-1.05,3.25-2.14,4.5-3.26c1.25-1.12,2.32-2.14,3.22-3.04h3.37v22.48   c-1.5,0.65-3.24,1.4-5.21,2.25c-1.97,0.85-3.98,1.55-6.03,2.1c-2.55,0.7-4.93,1.24-7.16,1.61   C546.01,373.01,543.08,373.2,539.43,373.2z"/>
	<path class="st0" d="M659.85,328.91c0,13.84-3.78,24.74-11.35,32.71c-7.57,7.97-18.27,11.95-32.11,11.95   c-13.74,0-24.42-3.98-32.03-11.95c-7.62-7.97-11.43-18.87-11.43-32.71c0-13.99,3.81-24.94,11.43-32.86   c7.62-7.92,18.3-11.88,32.03-11.88c13.79,0,24.48,3.98,32.07,11.95C656.06,304.09,659.85,315.02,659.85,328.91z M632.95,329.06   c0-5-0.41-9.15-1.24-12.48c-0.82-3.32-1.96-5.98-3.41-7.98c-1.55-2.1-3.3-3.56-5.25-4.38c-1.95-0.82-4.17-1.24-6.67-1.24   c-2.35,0-4.47,0.36-6.37,1.09c-1.9,0.72-3.65,2.11-5.25,4.16c-1.5,1.95-2.7,4.62-3.6,8.02c-0.9,3.4-1.35,7.67-1.35,12.81   c0,5.15,0.42,9.3,1.27,12.48c0.85,3.17,1.95,5.71,3.3,7.61c1.4,1.95,3.15,3.37,5.25,4.27c2.1,0.9,4.42,1.35,6.97,1.35   c2.1,0,4.23-0.45,6.41-1.35s3.91-2.25,5.21-4.05c1.55-2.15,2.72-4.73,3.52-7.76S632.95,334.41,632.95,329.06z"/>
	<path class="st0" d="M756.29,327.71c0,13.44-3.41,24.28-10.23,32.52s-15.22,12.36-25.21,12.36c-4.2,0-7.84-0.48-10.94-1.42   s-6.39-2.42-9.89-4.42v35.07h-26.23V286.8h26.23v8.77c3.85-3.3,7.77-5.97,11.76-8.02c4-2.05,8.62-3.07,13.86-3.07   c9.74,0,17.28,3.87,22.63,11.62C753.62,303.83,756.29,314.37,756.29,327.71z M729.47,328.24c0-8.19-1.26-14.14-3.78-17.83   c-2.52-3.7-6.46-5.55-11.8-5.55c-2.35,0-4.68,0.38-7.01,1.12c-2.32,0.75-4.61,1.87-6.86,3.37v42.34c1.4,0.6,2.93,1.02,4.61,1.27   c1.67,0.25,3.66,0.38,5.96,0.38c6.39,0,11.14-2.09,14.24-6.26C727.92,342.91,729.47,336.63,729.47,328.24z"/>
	<path class="st0" d="M813.47,373.2c-15.89,0-28.06-3.8-36.53-11.39c-8.47-7.59-12.7-18.41-12.7-32.45c0-13.74,3.95-24.7,11.84-32.9   c7.89-8.19,18.93-12.29,33.12-12.29c12.89,0,22.58,3.47,29.07,10.42c6.49,6.94,9.74,16.89,9.74,29.82v9.44h-57.48   c0.25,3.9,1.07,7.16,2.47,9.78c1.4,2.62,3.25,4.71,5.54,6.26c2.25,1.55,4.87,2.66,7.87,3.33c3,0.67,6.27,1.01,9.82,1.01   c3.05,0,6.04-0.34,8.99-1.01c2.95-0.67,5.64-1.56,8.09-2.66c2.15-0.95,4.13-1.97,5.96-3.07c1.82-1.1,3.31-2.07,4.46-2.92h2.77   v21.66c-2.15,0.85-4.11,1.64-5.88,2.36c-1.77,0.72-4.21,1.46-7.31,2.21c-2.85,0.75-5.78,1.34-8.8,1.76   C821.5,372.98,817.81,373.2,813.47,373.2z M822.16,318.04c-0.15-5.54-1.44-9.77-3.86-12.66c-2.42-2.9-6.13-4.35-11.13-4.35   c-5.1,0-9.08,1.52-11.95,4.57c-2.87,3.05-4.46,7.19-4.76,12.44H822.16z"/>
</g>
</svg>