<svg width="128" height="40" viewBox="0 0 128 40" fill="none" xmlns="http://www.w3.org/2000/svg">
<g clip-path="url(#clip0_5609_7044)">
<path d="M38.0044 28.8235V10.1254H46.1917V12.8361H41.1023V17.9808H45.3619V20.6915H41.1023V26.1128H46.3024V28.8235H38.0044Z" fill="#333333"/>
<path d="M57.8646 25.1171C57.8646 27.9937 55.9837 29.0448 53.1624 29.0448H53.1071C50.2305 29.0448 48.3496 27.9937 48.3496 25.1171V13.8319C48.3496 11.0659 50.2305 9.90414 53.1071 9.90414H53.1624C55.9837 9.90414 57.8646 11.0659 57.8646 13.8319V17.2617H54.7667V14.3297C54.7667 13.0021 54.1029 12.6148 53.1071 12.6148C52.1114 12.6148 51.5028 13.0021 51.5028 14.3297V24.6192C51.5028 25.9469 52.1114 26.3341 53.1071 26.3341C54.1029 26.3341 54.7667 25.9469 54.7667 24.6192V21.1894H57.8646V25.1171Z" fill="#333333"/>
<path d="M64.9455 9.90414H65.1115C67.9881 9.90414 69.869 11.0105 69.869 13.8319V25.1171C69.869 27.9384 67.9881 29.0448 65.1115 29.0448H64.9455C62.0689 29.0448 60.188 27.9384 60.188 25.1171V13.8319C60.188 11.0105 62.0689 9.90414 64.9455 9.90414ZM65.0561 26.3341C66.0519 26.3341 66.7157 25.9469 66.7157 24.6192V14.3297C66.7157 13.0021 66.0519 12.6148 65.0561 12.6148C64.0604 12.6148 63.3412 13.0021 63.3412 14.3297V24.6192C63.3412 25.9469 64.0051 26.3341 65.0561 26.3341Z" fill="#333333"/>
<path d="M78.278 16.8191V14.1638C78.3049 13.9466 78.2819 13.7263 78.2108 13.5194C78.1397 13.3125 78.0223 13.1245 77.8676 12.9698C77.7129 12.8152 77.525 12.6978 77.3181 12.6267C77.1112 12.5556 76.8908 12.5326 76.6737 12.5595C76.4566 12.5326 76.2362 12.5556 76.0293 12.6267C75.8224 12.6978 75.6345 12.8152 75.4798 12.9698C75.3251 13.1245 75.2077 13.3125 75.1366 13.5194C75.0655 13.7263 75.0425 13.9466 75.0694 14.1638V15.4361C75.0694 16.4319 75.4014 16.8744 76.2865 17.3723L78.4993 18.5893C80.2695 19.5851 81.3759 20.4149 81.3759 22.4617V25.1724C81.3759 28.049 79.5503 29.0448 76.729 29.0448H76.6737C73.8524 29.0448 72.0269 28.049 72.0269 25.1724V21.9085H75.0694V24.7298C75.0428 24.9542 75.0673 25.1817 75.1413 25.3952C75.2153 25.6087 75.3367 25.8027 75.4965 25.9624C75.6562 26.1222 75.8502 26.2436 76.0637 26.3176C76.2772 26.3916 76.5047 26.4161 76.729 26.3894C76.949 26.4072 77.1703 26.3761 77.3768 26.2981C77.5833 26.2202 77.77 26.0975 77.9234 25.9388C78.0768 25.7801 78.1931 25.5894 78.264 25.3803C78.3349 25.1713 78.3586 24.9491 78.3333 24.7298V23.2362C78.3333 22.2958 78.0014 21.7979 77.061 21.3L74.9035 20.083C73.0779 19.0319 72.0269 18.1468 72.0269 16.2106V13.7212C72.0269 10.9552 74.0737 9.90414 76.6737 9.90414H76.729C79.2737 9.90414 81.3206 10.9552 81.3206 13.7212V16.8191H78.278Z" fill="#333333"/>
<path d="M92.9921 25.1171C92.9921 27.9937 91.1112 29.0448 88.2899 29.0448H88.2345C85.3579 29.0448 83.4771 27.9937 83.4771 25.1171V13.8319C83.4771 11.0659 85.3579 9.90414 88.2345 9.90414H88.2899C91.1112 9.90414 92.9921 11.0659 92.9921 13.8319V17.2617H89.8941V14.3297C89.8941 13.0021 89.2303 12.6148 88.2345 12.6148C87.2388 12.6148 86.6303 13.0021 86.6303 14.3297V24.6192C86.6303 25.9469 87.2388 26.3341 88.2345 26.3341C89.2303 26.3341 89.8941 25.9469 89.8941 24.6192V21.1894H92.9921V25.1171Z" fill="#333333"/>
<path d="M100.073 9.90414H100.239C103.116 9.90414 104.997 11.0105 104.997 13.8319V25.1171C104.997 27.9384 103.116 29.0448 100.239 29.0448H100.073C97.1968 29.0448 95.3159 27.9384 95.3159 25.1171V13.8319C95.3159 11.0105 97.1968 9.90414 100.073 9.90414ZM100.129 26.3341C101.18 26.3341 101.844 25.9469 101.844 24.6192V14.3297C101.844 13.0021 101.18 12.6148 100.129 12.6148C99.0777 12.6148 98.4138 13.0021 98.4138 14.3297V24.6192C98.4138 25.9469 99.133 26.3341 100.129 26.3341Z" fill="#333333"/>
<path d="M117.112 14.0531V17.6489C117.112 20.4702 115.231 21.5766 112.41 21.5766H110.639V28.8235H107.542V10.1254H112.41C115.231 10.1254 117.112 11.2318 117.112 14.0531ZM114.014 14.551C114.014 13.2233 113.295 12.8361 112.299 12.8361H110.639V18.8659H112.299C113.295 18.8659 114.014 18.4787 114.014 17.151V14.551Z" fill="#333333"/>
<path d="M119.104 28.8235V10.1254H127.291V12.8361H122.201V17.9808H126.461V20.6915H122.201V26.1128H127.401V28.8235H119.104Z" fill="#333333"/>
<path d="M33.8005 29.3214L29.2643 26.998L17.8684 32.9725C17.7928 33.0101 17.7088 33.0277 17.6245 33.0239C17.5401 33.0201 17.4581 32.9948 17.3862 32.9506C17.3143 32.9063 17.2548 32.8445 17.2134 32.7709C17.1719 32.6973 17.1499 32.6144 17.1493 32.53V29.764L8.46408 25.2278L0.553335 29.3214C0.401272 29.4045 0.27354 29.5259 0.182752 29.6735C0.0919643 29.8211 0.0412612 29.9899 0.0356739 30.1631C0.0300866 30.3363 0.0698095 30.508 0.150895 30.6611C0.231981 30.8143 0.351622 30.9436 0.498012 31.0363L16.7067 39.445C16.8392 39.5285 16.9926 39.5728 17.1493 39.5728C17.3059 39.5728 17.4594 39.5285 17.5918 39.445L33.8005 31.0363C33.9657 30.9619 34.1058 30.8415 34.2041 30.6894C34.3024 30.5373 34.3547 30.36 34.3547 30.1789C34.3547 29.9978 34.3024 29.8205 34.2041 29.6684C34.1058 29.5163 33.9657 29.3958 33.8005 29.3214Z" fill="#004E26"/>
<path d="M33.8005 19.4191L28.6558 16.7638L17.8684 22.4064C17.7928 22.4439 17.7088 22.4616 17.6245 22.4578C17.5401 22.4539 17.4581 22.4287 17.3862 22.3844C17.3143 22.3402 17.2548 22.2783 17.2134 22.2048C17.1719 22.1312 17.1499 22.0483 17.1493 21.9638V19.1978L9.07258 15.0489L0.553335 19.4191C0.401272 19.5022 0.27354 19.6236 0.182752 19.7712C0.0919643 19.9188 0.0412612 20.0876 0.0356739 20.2608C0.0300866 20.434 0.0698095 20.6056 0.150895 20.7588C0.231981 20.912 0.351622 21.0413 0.498012 21.134L17.1493 29.7639L33.8005 21.134C33.9657 21.0597 34.1058 20.9392 34.2041 20.7871C34.3024 20.635 34.3547 20.4577 34.3547 20.2766C34.3547 20.0955 34.3024 19.9182 34.2041 19.7661C34.1058 19.614 33.9657 19.4935 33.8005 19.4191Z" fill="#008329"/>
<path d="M0.498012 10.6233L17.1493 19.1979L33.8005 10.6233C33.9657 10.5489 34.1058 10.4284 34.2041 10.2763C34.3024 10.1242 34.3547 9.94694 34.3547 9.76583C34.3547 9.58472 34.3024 9.40745 34.2041 9.25534C34.1058 9.10324 33.9657 8.98275 33.8005 8.90836L17.5918 0.555082C17.4594 0.471545 17.3059 0.427216 17.1493 0.427216C16.9926 0.427216 16.8392 0.471545 16.7067 0.555082L0.553335 8.90836C0.401272 8.99148 0.27354 9.11285 0.182752 9.26046C0.0919643 9.40807 0.0412612 9.57682 0.0356739 9.75003C0.0300866 9.92323 0.0698095 10.0949 0.150895 10.248C0.231981 10.4012 0.351622 10.5305 0.498012 10.6233Z" fill="#00B215"/>
</g>
<defs>
<clipPath id="clip0_5609_7044">
<rect width="128" height="40" fill="white"/>
</clipPath>
</defs>
</svg>
